<?xml version="1.0" encoding="utf-8"?>
<!-- Generator: Adobe Illustrator 16.0.3, SVG Export Plug-In . SVG Version: 6.00 Build 0)  -->
<!DOCTYPE svg PUBLIC "-//W3C//DTD SVG 1.1//EN" "http://www.w3.org/Graphics/SVG/1.1/DTD/svg11.dtd">
<svg version="1.1" id="Layer_1" xmlns="http://www.w3.org/2000/svg" xmlns:xlink="http://www.w3.org/1999/xlink" x="0px" y="0px"
	 width="64px" height="64px" viewBox="0 0 64 64" enable-background="new 0 0 64 64" xml:space="preserve">
<polygon opacity="0.5" fill="#A1ADB8" points="59.2,41.6 44.6,22.2 29,28.1 17.4,22.8 3.2,6.7 4.8,5.3 18.6,21.2 29,25.9 45.4,19.8 
	60.8,40.4 "/>
<polygon fill="#A1ADB8" points="59.3,58.7 44.8,44.2 28.7,52.3 17.7,38.3 4.5,45.9 3.5,44.1 18.3,35.7 29.3,49.7 45.2,41.8 
	60.7,57.3 "/>
<polygon opacity="0.7" fill="#A1ADB8" points="59.2,51.6 44.7,34.2 28.7,41.2 17.6,29.1 4.1,31 3.9,29 18.4,26.9 29.3,38.8 
	45.3,31.8 60.8,50.4 "/>
</svg>
